<mxfile host="app.diagrams.net" modified="2024-02-05T18:54:04.849Z" agent="Mozilla/5.0 (Macintosh; Intel Mac OS X 10_15_7) AppleWebKit/537.36 (KHTML, like Gecko) Chrome/121.0.0.0 Safari/537.36" etag="BYie4LB1d0rpCGi_fScZ" version="23.0.2" type="device">
  <diagram name="Page-1" id="htsJM4anXHrRQdz8EMf4">
    <mxGraphModel dx="1242" dy="737" grid="1" gridSize="10" guides="1" tooltips="1" connect="1" arrows="1" fold="1" page="1" pageScale="1" pageWidth="850" pageHeight="1100" math="0" shadow="0">
      <root>
        <mxCell id="0" />
        <mxCell id="1" parent="0" />
        <mxCell id="22YZInvxd_Wk44Z8TYq--139" value="" style="endArrow=none;dashed=1;html=1;dashPattern=1 3;strokeWidth=2;rounded=0;exitX=0.4;exitY=1;exitDx=0;exitDy=0;exitPerimeter=0;" edge="1" parent="1" source="22YZInvxd_Wk44Z8TYq--114">
          <mxGeometry width="50" height="50" relative="1" as="geometry">
            <mxPoint x="430" y="620" as="sourcePoint" />
            <mxPoint x="210" y="359" as="targetPoint" />
          </mxGeometry>
        </mxCell>
        <mxCell id="22YZInvxd_Wk44Z8TYq--137" value="" style="endArrow=none;dashed=1;html=1;dashPattern=1 3;strokeWidth=2;rounded=0;exitX=0.8;exitY=0.55;exitDx=0;exitDy=0;exitPerimeter=0;" edge="1" parent="1" source="22YZInvxd_Wk44Z8TYq--130">
          <mxGeometry width="50" height="50" relative="1" as="geometry">
            <mxPoint x="540" y="580" as="sourcePoint" />
            <mxPoint x="210" y="297" as="targetPoint" />
          </mxGeometry>
        </mxCell>
        <mxCell id="22YZInvxd_Wk44Z8TYq--80" value="" style="endArrow=classic;html=1;rounded=0;strokeWidth=2;" edge="1" parent="1">
          <mxGeometry width="50" height="50" relative="1" as="geometry">
            <mxPoint x="210" y="550" as="sourcePoint" />
            <mxPoint x="210" y="170" as="targetPoint" />
          </mxGeometry>
        </mxCell>
        <mxCell id="22YZInvxd_Wk44Z8TYq--81" value="" style="endArrow=classic;html=1;rounded=0;strokeWidth=2;" edge="1" parent="1">
          <mxGeometry width="50" height="50" relative="1" as="geometry">
            <mxPoint x="130" y="450" as="sourcePoint" />
            <mxPoint x="760" y="450" as="targetPoint" />
          </mxGeometry>
        </mxCell>
        <mxCell id="22YZInvxd_Wk44Z8TYq--82" value="" style="endArrow=none;dashed=1;html=1;dashPattern=1 3;strokeWidth=2;rounded=0;" edge="1" parent="1" source="22YZInvxd_Wk44Z8TYq--102">
          <mxGeometry width="50" height="50" relative="1" as="geometry">
            <mxPoint x="250" y="450" as="sourcePoint" />
            <mxPoint x="250" y="350" as="targetPoint" />
          </mxGeometry>
        </mxCell>
        <mxCell id="22YZInvxd_Wk44Z8TYq--84" value="" style="endArrow=none;dashed=1;html=1;dashPattern=1 3;strokeWidth=2;rounded=0;" edge="1" parent="1">
          <mxGeometry width="50" height="50" relative="1" as="geometry">
            <mxPoint x="370" y="450" as="sourcePoint" />
            <mxPoint x="370" y="350" as="targetPoint" />
          </mxGeometry>
        </mxCell>
        <mxCell id="22YZInvxd_Wk44Z8TYq--88" value="" style="endArrow=none;dashed=1;html=1;dashPattern=1 3;strokeWidth=2;rounded=0;" edge="1" parent="1">
          <mxGeometry width="50" height="50" relative="1" as="geometry">
            <mxPoint x="364" y="350" as="sourcePoint" />
            <mxPoint x="210" y="350" as="targetPoint" />
          </mxGeometry>
        </mxCell>
        <mxCell id="22YZInvxd_Wk44Z8TYq--89" value="" style="endArrow=none;dashed=1;html=1;dashPattern=1 3;strokeWidth=2;rounded=0;" edge="1" parent="1">
          <mxGeometry width="50" height="50" relative="1" as="geometry">
            <mxPoint x="490" y="450" as="sourcePoint" />
            <mxPoint x="490" y="400" as="targetPoint" />
          </mxGeometry>
        </mxCell>
        <mxCell id="22YZInvxd_Wk44Z8TYq--90" value="" style="endArrow=none;dashed=1;html=1;dashPattern=1 3;strokeWidth=2;rounded=0;" edge="1" parent="1">
          <mxGeometry width="50" height="50" relative="1" as="geometry">
            <mxPoint x="490" y="400" as="sourcePoint" />
            <mxPoint x="210" y="400" as="targetPoint" />
          </mxGeometry>
        </mxCell>
        <mxCell id="22YZInvxd_Wk44Z8TYq--95" value="" style="endArrow=none;dashed=1;html=1;dashPattern=1 3;strokeWidth=2;rounded=0;" edge="1" parent="1">
          <mxGeometry width="50" height="50" relative="1" as="geometry">
            <mxPoint x="610" y="450" as="sourcePoint" />
            <mxPoint x="610" y="360" as="targetPoint" />
          </mxGeometry>
        </mxCell>
        <mxCell id="22YZInvxd_Wk44Z8TYq--96" value="&lt;h4&gt;&lt;span style=&quot;font-weight: normal;&quot;&gt;&lt;font style=&quot;font-size: 21px;&quot;&gt;f&lt;/font&gt;&lt;/span&gt;&lt;/h4&gt;" style="text;html=1;strokeColor=none;fillColor=none;align=center;verticalAlign=middle;whiteSpace=wrap;rounded=0;" vertex="1" parent="1">
          <mxGeometry x="160" y="180" width="60" height="30" as="geometry" />
        </mxCell>
        <mxCell id="22YZInvxd_Wk44Z8TYq--97" value="&lt;h4&gt;&lt;span style=&quot;font-weight: normal;&quot;&gt;&lt;font style=&quot;font-size: 21px;&quot;&gt;t&lt;/font&gt;&lt;/span&gt;&lt;/h4&gt;" style="text;html=1;strokeColor=none;fillColor=none;align=center;verticalAlign=middle;whiteSpace=wrap;rounded=0;" vertex="1" parent="1">
          <mxGeometry x="690" y="460" width="60" height="30" as="geometry" />
        </mxCell>
        <mxCell id="22YZInvxd_Wk44Z8TYq--100" value="" style="curved=1;endArrow=none;html=1;rounded=0;edgeStyle=orthogonalEdgeStyle;endFill=0;strokeWidth=2;strokeColor=#BABABA;" edge="1" parent="1">
          <mxGeometry width="50" height="50" relative="1" as="geometry">
            <mxPoint x="290" y="310" as="sourcePoint" />
            <mxPoint x="656" y="280" as="targetPoint" />
            <Array as="points">
              <mxPoint x="281" y="310" />
              <mxPoint x="310" y="310" />
              <mxPoint x="310" y="360" />
              <mxPoint x="340" y="360" />
              <mxPoint x="340" y="280" />
              <mxPoint x="360" y="280" />
              <mxPoint x="360" y="350" />
              <mxPoint x="390" y="350" />
              <mxPoint x="390" y="260" />
              <mxPoint x="420" y="260" />
              <mxPoint x="420" y="310" />
              <mxPoint x="450" y="310" />
              <mxPoint x="450" y="270" />
              <mxPoint x="470" y="270" />
              <mxPoint x="470" y="400" />
              <mxPoint x="520" y="400" />
              <mxPoint x="520" y="310" />
              <mxPoint x="550" y="310" />
              <mxPoint x="550" y="270" />
              <mxPoint x="586" y="270" />
              <mxPoint x="586" y="360" />
              <mxPoint x="636" y="360" />
              <mxPoint x="636" y="280" />
            </Array>
          </mxGeometry>
        </mxCell>
        <mxCell id="22YZInvxd_Wk44Z8TYq--101" value="" style="endArrow=none;dashed=1;html=1;dashPattern=1 3;strokeWidth=2;rounded=0;" edge="1" parent="1" target="22YZInvxd_Wk44Z8TYq--102">
          <mxGeometry width="50" height="50" relative="1" as="geometry">
            <mxPoint x="250" y="450" as="sourcePoint" />
            <mxPoint x="250" y="350" as="targetPoint" />
          </mxGeometry>
        </mxCell>
        <mxCell id="22YZInvxd_Wk44Z8TYq--103" value="" style="curved=1;endArrow=none;html=1;rounded=0;edgeStyle=orthogonalEdgeStyle;endFill=0;strokeWidth=2;strokeColor=#BABABA;" edge="1" parent="1">
          <mxGeometry width="50" height="50" relative="1" as="geometry">
            <mxPoint x="230" y="350" as="sourcePoint" />
            <mxPoint x="290" y="310" as="targetPoint" />
            <Array as="points">
              <mxPoint x="230" y="351" />
              <mxPoint x="281" y="351" />
            </Array>
          </mxGeometry>
        </mxCell>
        <mxCell id="22YZInvxd_Wk44Z8TYq--109" value="" style="endArrow=none;dashed=1;html=1;dashPattern=1 3;strokeWidth=2;rounded=0;" edge="1" parent="1">
          <mxGeometry width="50" height="50" relative="1" as="geometry">
            <mxPoint x="450" y="300" as="sourcePoint" />
            <mxPoint x="448.0000000000001" y="300" as="targetPoint" />
          </mxGeometry>
        </mxCell>
        <mxCell id="22YZInvxd_Wk44Z8TYq--118" value="" style="endArrow=none;dashed=1;html=1;dashPattern=1 3;strokeWidth=2;rounded=0;" edge="1" parent="1">
          <mxGeometry width="50" height="50" relative="1" as="geometry">
            <mxPoint x="310" y="450" as="sourcePoint" />
            <mxPoint x="310" y="350" as="targetPoint" />
          </mxGeometry>
        </mxCell>
        <mxCell id="22YZInvxd_Wk44Z8TYq--120" value="" style="shape=waypoint;sketch=0;fillStyle=solid;size=6;pointerEvents=1;points=[];fillColor=none;resizable=0;rotatable=0;perimeter=centerPerimeter;snapToPoint=1;" vertex="1" parent="1">
          <mxGeometry x="339" y="270" width="20" height="20" as="geometry" />
        </mxCell>
        <mxCell id="22YZInvxd_Wk44Z8TYq--123" value="" style="endArrow=none;dashed=1;html=1;dashPattern=1 3;strokeWidth=2;rounded=0;" edge="1" parent="1">
          <mxGeometry width="50" height="50" relative="1" as="geometry">
            <mxPoint x="430" y="450" as="sourcePoint" />
            <mxPoint x="430" y="310" as="targetPoint" />
          </mxGeometry>
        </mxCell>
        <mxCell id="22YZInvxd_Wk44Z8TYq--129" value="" style="endArrow=none;dashed=1;html=1;dashPattern=1 3;strokeWidth=2;rounded=0;" edge="1" parent="1">
          <mxGeometry width="50" height="50" relative="1" as="geometry">
            <mxPoint x="550" y="450" as="sourcePoint" />
            <mxPoint x="550" y="290" as="targetPoint" />
          </mxGeometry>
        </mxCell>
        <mxCell id="22YZInvxd_Wk44Z8TYq--133" value="" style="endArrow=none;dashed=1;html=1;dashPattern=1 3;strokeWidth=2;rounded=0;" edge="1" parent="1" source="22YZInvxd_Wk44Z8TYq--117">
          <mxGeometry width="50" height="50" relative="1" as="geometry">
            <mxPoint x="280" y="590" as="sourcePoint" />
            <mxPoint x="210" y="343" as="targetPoint" />
          </mxGeometry>
        </mxCell>
        <mxCell id="22YZInvxd_Wk44Z8TYq--134" value="" style="endArrow=none;dashed=1;html=1;dashPattern=1 3;strokeWidth=2;rounded=0;exitX=0.35;exitY=0.95;exitDx=0;exitDy=0;exitPerimeter=0;" edge="1" parent="1" source="22YZInvxd_Wk44Z8TYq--120">
          <mxGeometry width="50" height="50" relative="1" as="geometry">
            <mxPoint x="320" y="610" as="sourcePoint" />
            <mxPoint x="210" y="280" as="targetPoint" />
          </mxGeometry>
        </mxCell>
        <mxCell id="22YZInvxd_Wk44Z8TYq--140" value="" style="endArrow=none;html=1;rounded=0;strokeColor=#FF2424;strokeWidth=2;" edge="1" parent="1" target="22YZInvxd_Wk44Z8TYq--117">
          <mxGeometry width="50" height="50" relative="1" as="geometry">
            <mxPoint x="250" y="350" as="sourcePoint" />
            <mxPoint x="270" y="347" as="targetPoint" />
          </mxGeometry>
        </mxCell>
        <mxCell id="22YZInvxd_Wk44Z8TYq--143" value="" style="endArrow=none;html=1;rounded=0;strokeColor=#FF2424;strokeWidth=2;exitX=0.55;exitY=0.75;exitDx=0;exitDy=0;exitPerimeter=0;entryX=0.535;entryY=0.326;entryDx=0;entryDy=0;entryPerimeter=0;" edge="1" parent="1" source="22YZInvxd_Wk44Z8TYq--117" target="22YZInvxd_Wk44Z8TYq--120">
          <mxGeometry width="50" height="50" relative="1" as="geometry">
            <mxPoint x="320" y="540" as="sourcePoint" />
            <mxPoint x="330" y="358" as="targetPoint" />
          </mxGeometry>
        </mxCell>
        <mxCell id="22YZInvxd_Wk44Z8TYq--145" value="" style="endArrow=none;html=1;rounded=0;strokeColor=#FF2424;strokeWidth=2;exitX=0.6;exitY=0.15;exitDx=0;exitDy=0;exitPerimeter=0;" edge="1" parent="1" source="22YZInvxd_Wk44Z8TYq--120" target="22YZInvxd_Wk44Z8TYq--107">
          <mxGeometry width="50" height="50" relative="1" as="geometry">
            <mxPoint x="350" y="630" as="sourcePoint" />
            <mxPoint x="370" y="627" as="targetPoint" />
          </mxGeometry>
        </mxCell>
        <mxCell id="22YZInvxd_Wk44Z8TYq--146" value="" style="endArrow=none;html=1;rounded=0;strokeColor=#FF2424;strokeWidth=2;exitX=0.7;exitY=0.35;exitDx=0;exitDy=0;exitPerimeter=0;entryX=0.34;entryY=0.521;entryDx=0;entryDy=0;entryPerimeter=0;" edge="1" parent="1" source="22YZInvxd_Wk44Z8TYq--107" target="22YZInvxd_Wk44Z8TYq--124">
          <mxGeometry width="50" height="50" relative="1" as="geometry">
            <mxPoint x="290" y="580" as="sourcePoint" />
            <mxPoint x="410" y="260" as="targetPoint" />
          </mxGeometry>
        </mxCell>
        <mxCell id="22YZInvxd_Wk44Z8TYq--149" value="" style="endArrow=none;html=1;rounded=0;strokeColor=#FF2424;strokeWidth=2;exitX=0.5;exitY=0.8;exitDx=0;exitDy=0;exitPerimeter=0;entryX=0.36;entryY=0.396;entryDx=0;entryDy=0;entryPerimeter=0;" edge="1" parent="1" source="22YZInvxd_Wk44Z8TYq--124" target="22YZInvxd_Wk44Z8TYq--111">
          <mxGeometry width="50" height="50" relative="1" as="geometry">
            <mxPoint x="470" y="690" as="sourcePoint" />
            <mxPoint x="448.0000000000001" y="300" as="targetPoint" />
          </mxGeometry>
        </mxCell>
        <mxCell id="22YZInvxd_Wk44Z8TYq--152" value="" style="endArrow=none;html=1;rounded=0;strokeColor=#FF2424;strokeWidth=2;exitX=0.5;exitY=0.9;exitDx=0;exitDy=0;exitPerimeter=0;" edge="1" parent="1" source="22YZInvxd_Wk44Z8TYq--111" target="22YZInvxd_Wk44Z8TYq--130">
          <mxGeometry width="50" height="50" relative="1" as="geometry">
            <mxPoint x="420" y="630" as="sourcePoint" />
            <mxPoint x="509" y="393" as="targetPoint" />
          </mxGeometry>
        </mxCell>
        <mxCell id="22YZInvxd_Wk44Z8TYq--156" value="" style="endArrow=none;html=1;rounded=0;strokeColor=#FF2424;strokeWidth=2;exitX=0.66;exitY=0.604;exitDx=0;exitDy=0;exitPerimeter=0;entryX=0.319;entryY=0.375;entryDx=0;entryDy=0;entryPerimeter=0;" edge="1" parent="1" source="22YZInvxd_Wk44Z8TYq--130" target="22YZInvxd_Wk44Z8TYq--114">
          <mxGeometry width="50" height="50" relative="1" as="geometry">
            <mxPoint x="570" y="268" as="sourcePoint" />
            <mxPoint x="589" y="343" as="targetPoint" />
          </mxGeometry>
        </mxCell>
        <mxCell id="22YZInvxd_Wk44Z8TYq--117" value="" style="shape=waypoint;sketch=0;fillStyle=solid;size=6;pointerEvents=1;points=[];fillColor=none;resizable=0;rotatable=0;perimeter=centerPerimeter;snapToPoint=1;" vertex="1" parent="1">
          <mxGeometry x="300" y="333" width="20" height="20" as="geometry" />
        </mxCell>
        <mxCell id="22YZInvxd_Wk44Z8TYq--102" value="" style="shape=waypoint;sketch=0;fillStyle=solid;size=6;pointerEvents=1;points=[];fillColor=none;resizable=0;rotatable=0;perimeter=centerPerimeter;snapToPoint=1;" vertex="1" parent="1">
          <mxGeometry x="240" y="340" width="20" height="20" as="geometry" />
        </mxCell>
        <mxCell id="22YZInvxd_Wk44Z8TYq--107" value="" style="shape=waypoint;sketch=0;fillStyle=solid;size=6;pointerEvents=1;points=[];fillColor=none;resizable=0;rotatable=0;perimeter=centerPerimeter;snapToPoint=1;" vertex="1" parent="1">
          <mxGeometry x="361" y="340" width="20" height="20" as="geometry" />
        </mxCell>
        <mxCell id="22YZInvxd_Wk44Z8TYq--124" value="" style="shape=waypoint;sketch=0;fillStyle=solid;size=6;pointerEvents=1;points=[];fillColor=none;resizable=0;rotatable=0;perimeter=centerPerimeter;snapToPoint=1;" vertex="1" parent="1">
          <mxGeometry x="420" y="298" width="20" height="20" as="geometry" />
        </mxCell>
        <mxCell id="22YZInvxd_Wk44Z8TYq--111" value="" style="shape=waypoint;sketch=0;fillStyle=solid;size=6;pointerEvents=1;points=[];fillColor=none;resizable=0;rotatable=0;perimeter=centerPerimeter;snapToPoint=1;" vertex="1" parent="1">
          <mxGeometry x="480" y="388" width="20" height="20" as="geometry" />
        </mxCell>
        <mxCell id="22YZInvxd_Wk44Z8TYq--130" value="" style="shape=waypoint;sketch=0;fillStyle=solid;size=6;pointerEvents=1;points=[];fillColor=none;resizable=0;rotatable=0;perimeter=centerPerimeter;snapToPoint=1;" vertex="1" parent="1">
          <mxGeometry x="539" y="288" width="20" height="20" as="geometry" />
        </mxCell>
        <mxCell id="22YZInvxd_Wk44Z8TYq--114" value="" style="shape=waypoint;sketch=0;fillStyle=solid;size=6;pointerEvents=1;points=[];fillColor=none;resizable=0;rotatable=0;perimeter=centerPerimeter;snapToPoint=1;" vertex="1" parent="1">
          <mxGeometry x="600" y="348" width="20" height="20" as="geometry" />
        </mxCell>
        <mxCell id="22YZInvxd_Wk44Z8TYq--159" value="" style="endArrow=none;dashed=1;html=1;dashPattern=1 3;strokeWidth=2;rounded=0;" edge="1" parent="1" source="22YZInvxd_Wk44Z8TYq--124">
          <mxGeometry width="50" height="50" relative="1" as="geometry">
            <mxPoint x="430" y="249" as="sourcePoint" />
            <mxPoint x="210" y="308" as="targetPoint" />
          </mxGeometry>
        </mxCell>
      </root>
    </mxGraphModel>
  </diagram>
</mxfile>
